<svg xmlns="http://www.w3.org/2000/svg" xmlns:xlink="http://www.w3.org/1999/xlink" viewBox="0 0 24 30" version="1.1" x="0px" y="0px"><title>design_001-shapes-geometry-figure-math</title><desc>Created with Sketch.</desc><g stroke="none" stroke-width="1" fill="none" fill-rule="evenodd"><g transform="translate(-44.000000, -44.000000)" fill="#000000"><g transform="translate(46.000000, 46.000000)"><path d="M1.00197556,7.99853476 L7.99853476,7.99802444 L7.99802444,1.00146524 L1.00146524,1.00197556 L1.00197556,7.99853476 Z M0.998746091,0 L8.00125391,0 C8.55284614,0 9,0.438614845 9,0.998746091 L9,8.00125391 C9,8.55284614 8.56138515,9 8.00125391,9 L0.998746091,9 C0.447153856,9 0,8.56138515 0,8.00125391 L0,0.998746091 C0,0.447153856 0.438614845,0 0.998746091,0 Z"/><path d="M12.3637085,8 L19.6399994,8 L15.9958483,1.53504426 L12.3637085,8 Z M16.4928047,0.380184045 L20.8574979,8.12364432 C21.1303091,8.6076422 20.9051039,9 20.3443414,9 L11.6533315,9 C11.0971119,9 10.8626656,8.61597743 11.140175,8.12364432 L15.5048682,0.380184045 C15.7776793,-0.103813835 16.2152953,-0.11214907 16.4928047,0.380184045 Z"/><path d="M4.5,20 C6.98528137,20 9,17.9852814 9,15.5 C9,13.0147186 6.98528137,11 4.5,11 C2.01471863,11 0,13.0147186 0,15.5 C0,17.9852814 2.01471863,20 4.5,20 Z M4.5,19 C6.43299662,19 8,17.4329966 8,15.5 C8,13.5670034 6.43299662,12 4.5,12 C2.56700338,12 1,13.5670034 1,15.5 C1,17.4329966 2.56700338,19 4.5,19 Z"/><path d="M16.2427164,11.1752019 L20.4920069,14.2624922 C20.6251875,14.3592535 20.6920079,14.5643215 20.6410426,14.7211768 L19.017958,19.7165173 C18.9670876,19.8730805 18.792705,20 18.6277776,20 L13.3753657,20 C13.2107455,20 13.0361506,19.8733726 12.9851853,19.7165173 L11.3621007,14.7211768 C11.3112303,14.5646136 11.3777074,14.359434 11.5111364,14.2624922 L15.7604269,11.1752019 C15.8936075,11.0784406 16.1092874,11.0782601 16.2427164,11.1752019 Z M16.0000005,12.2322554 L19.5600004,14.8187468 L18.2002014,19.0037777 L13.7997995,19.0037777 L12.4400005,14.8187468 L16.0000005,12.2322554 Z"/></g></g></g><text x="0" y="39" fill="#000000" font-size="5px" font-weight="bold" font-family="'Helvetica Neue', Helvetica, Arial-Unicode, Arial, Sans-serif">Created by Pham Thi Dieu Linh</text><text x="0" y="44" fill="#000000" font-size="5px" font-weight="bold" font-family="'Helvetica Neue', Helvetica, Arial-Unicode, Arial, Sans-serif">from the Noun Project</text></svg>